<svg width="199" height="198" viewBox="0 0 199 198" fill="none" xmlns="http://www.w3.org/2000/svg">
<path d="M198.5 99C198.5 153.676 154.176 198 99.5 198C44.8238 198 0.5 153.676 0.5 99C0.5 44.3238 44.8238 0 99.5 0C154.176 0 198.5 44.3238 198.5 99ZM25.25 99C25.25 140.007 58.4929 173.25 99.5 173.25C140.507 173.25 173.75 140.007 173.75 99C173.75 57.9929 140.507 24.75 99.5 24.75C58.4929 24.75 25.25 57.9929 25.25 99Z" fill="#161616"/>
<path d="M140.687 95.5359C143.353 97.0755 143.353 100.925 140.687 102.464L81.9062 136.401C79.2395 137.941 75.9062 136.016 75.9062 132.937L75.9062 65.0631C75.9062 61.9839 79.2395 60.0594 81.9062 61.599L140.687 95.5359Z" fill="#161616"/>
</svg>
